# xmcd
#
# Track frame offsets: 
#        150
#        25238
#        47832
#        66843
#        84790
#        105347
#        135607
#        154549
#
# Disc length: 2424 seconds
#
# Revision: 2
# Processed by: cddbd v1.5.2PL0 Copyright (c) Steve Scherf et al.
# Submitted via: ExactAudioCopy v0.95b4
#
DISCID=57097608
DTITLE=Pandit Dinesh - Destiny
DYEAR=2005
DGENRE=Hindi 
TTITLE0=Phir Khayalon Mein (Daler Mehnd)
TTITLE1=Sweet Is The Sound Of Love (Daler Mehndi and Hariharan)
TTITLE2=Piya Aise Mile (Richa Sharma)
TTITLE3=Tu Har Ghadi (Hariharan)
TTITLE4=Maine Jaana (Daler Mehndi, Hariharan and Richa Sharma)
TTITLE5=Jaane Kaha Hawa Chale (Richa Sharma)
TTITLE6=Sweet Is The Sound (Remix) (Daler Mehndi and Hariharan)
TTITLE7=Sapna (Hariharan)
EXTD=
EXTT0=
EXTT1=
EXTT2=
EXTT3=
EXTT4=
EXTT5=
EXTT6=
EXTT7=
PLAYORDER=
